<svg width="55" height="14" viewBox="0 0 55 14" fill="none" xmlns="http://www.w3.org/2000/svg">
<path d="M6.528 7.624C6.528 8.024 6.428 8.4 6.228 8.752C6.036 9.104 5.748 9.4 5.364 9.64C4.988 9.88 4.54 10.024 4.02 10.072V11.044H3.24V10.072C2.488 10 1.88 9.764 1.416 9.364C0.952 8.964 0.72 8.436 0.72 7.78H2.184C2.208 8.092 2.308 8.352 2.484 8.56C2.66 8.76 2.912 8.888 3.24 8.944V6.304C2.704 6.168 2.268 6.032 1.932 5.896C1.596 5.752 1.308 5.528 1.068 5.224C0.836 4.92 0.72 4.504 0.72 3.976C0.72 3.312 0.952 2.764 1.416 2.332C1.88 1.892 2.488 1.636 3.24 1.564V0.592H4.02V1.564C4.724 1.628 5.288 1.852 5.712 2.236C6.144 2.612 6.388 3.132 6.444 3.796H4.98C4.956 3.548 4.86 3.328 4.692 3.136C4.524 2.936 4.3 2.8 4.02 2.728V5.32C4.556 5.448 4.992 5.584 5.328 5.728C5.664 5.864 5.948 6.084 6.18 6.388C6.412 6.684 6.528 7.096 6.528 7.624ZM2.112 3.904C2.112 4.232 2.208 4.488 2.4 4.672C2.6 4.856 2.88 5.004 3.24 5.116V2.692C2.896 2.732 2.62 2.856 2.412 3.064C2.212 3.272 2.112 3.552 2.112 3.904ZM4.02 8.944C4.372 8.888 4.648 8.748 4.848 8.524C5.048 8.292 5.148 8.016 5.148 7.696C5.148 7.376 5.048 7.128 4.848 6.952C4.656 6.768 4.38 6.62 4.02 6.508V8.944ZM8.88469 5.512C8.88469 4.128 9.11669 3.048 9.58069 2.272C10.0527 1.488 10.8607 1.096 12.0047 1.096C13.1487 1.096 13.9527 1.488 14.4167 2.272C14.8887 3.048 15.1247 4.128 15.1247 5.512C15.1247 6.912 14.8887 8.008 14.4167 8.8C13.9527 9.584 13.1487 9.976 12.0047 9.976C10.8607 9.976 10.0527 9.584 9.58069 8.8C9.11669 8.008 8.88469 6.912 8.88469 5.512ZM13.7807 5.512C13.7807 4.864 13.7367 4.316 13.6487 3.868C13.5687 3.42 13.4007 3.056 13.1447 2.776C12.8887 2.488 12.5087 2.344 12.0047 2.344C11.5007 2.344 11.1207 2.488 10.8647 2.776C10.6087 3.056 10.4367 3.42 10.3487 3.868C10.2687 4.316 10.2287 4.864 10.2287 5.512C10.2287 6.184 10.2687 6.748 10.3487 7.204C10.4287 7.66 10.5967 8.028 10.8527 8.308C11.1167 8.588 11.5007 8.728 12.0047 8.728C12.5087 8.728 12.8887 8.588 13.1447 8.308C13.4087 8.028 13.5807 7.66 13.6607 7.204C13.7407 6.748 13.7807 6.184 13.7807 5.512ZM22.9894 10.108C22.4694 10.108 22.0014 10.016 21.5854 9.832C21.1774 9.64 20.8534 9.384 20.6134 9.064C20.3734 8.736 20.2454 8.372 20.2294 7.972H21.6454C21.6694 8.252 21.8014 8.488 22.0414 8.68C22.2894 8.864 22.5974 8.956 22.9654 8.956C23.3494 8.956 23.6454 8.884 23.8534 8.74C24.0694 8.588 24.1774 8.396 24.1774 8.164C24.1774 7.916 24.0574 7.732 23.8174 7.612C23.5854 7.492 23.2134 7.36 22.7014 7.216C22.2054 7.08 21.8014 6.948 21.4894 6.82C21.1774 6.692 20.9054 6.496 20.6734 6.232C20.4494 5.968 20.3374 5.62 20.3374 5.188C20.3374 4.836 20.4414 4.516 20.6494 4.228C20.8574 3.932 21.1534 3.7 21.5374 3.532C21.9294 3.364 22.3774 3.28 22.8814 3.28C23.6334 3.28 24.2374 3.472 24.6934 3.856C25.1574 4.232 25.4054 4.748 25.4374 5.404H24.0694C24.0454 5.108 23.9254 4.872 23.7094 4.696C23.4934 4.52 23.2014 4.432 22.8334 4.432C22.4734 4.432 22.1974 4.5 22.0054 4.636C21.8134 4.772 21.7174 4.952 21.7174 5.176C21.7174 5.352 21.7814 5.5 21.9094 5.62C22.0374 5.74 22.1934 5.836 22.3774 5.908C22.5614 5.972 22.8334 6.056 23.1934 6.16C23.6734 6.288 24.0654 6.42 24.3694 6.556C24.6814 6.684 24.9494 6.876 25.1734 7.132C25.3974 7.388 25.5134 7.728 25.5214 8.152C25.5214 8.528 25.4174 8.864 25.2094 9.16C25.0014 9.456 24.7054 9.688 24.3214 9.856C23.9454 10.024 23.5014 10.108 22.9894 10.108ZM28.7275 4.36C28.9595 4.056 29.2755 3.8 29.6755 3.592C30.0755 3.384 30.5275 3.28 31.0315 3.28C31.6075 3.28 32.1315 3.424 32.6035 3.712C33.0835 3.992 33.4595 4.388 33.7315 4.9C34.0035 5.412 34.1395 6 34.1395 6.664C34.1395 7.328 34.0035 7.924 33.7315 8.452C33.4595 8.972 33.0835 9.38 32.6035 9.676C32.1315 9.964 31.6075 10.108 31.0315 10.108C30.5275 10.108 30.0795 10.008 29.6875 9.808C29.2955 9.6 28.9755 9.344 28.7275 9.04V13.144H27.3595V3.388H28.7275V4.36ZM32.7475 6.664C32.7475 6.208 32.6515 5.816 32.4595 5.488C32.2755 5.152 32.0275 4.9 31.7155 4.732C31.4115 4.556 31.0835 4.468 30.7315 4.468C30.3875 4.468 30.0595 4.556 29.7475 4.732C29.4435 4.908 29.1955 5.164 29.0035 5.5C28.8195 5.836 28.7275 6.232 28.7275 6.688C28.7275 7.144 28.8195 7.544 29.0035 7.888C29.1955 8.224 29.4435 8.48 29.7475 8.656C30.0595 8.832 30.3875 8.92 30.7315 8.92C31.0835 8.92 31.4115 8.832 31.7155 8.656C32.0275 8.472 32.2755 8.208 32.4595 7.864C32.6515 7.52 32.7475 7.12 32.7475 6.664ZM41.9123 6.532C41.9123 6.78 41.8963 7.004 41.8643 7.204H36.8123C36.8523 7.732 37.0483 8.156 37.4003 8.476C37.7523 8.796 38.1843 8.956 38.6963 8.956C39.4323 8.956 39.9523 8.648 40.2563 8.032H41.7323C41.5323 8.64 41.1683 9.14 40.6403 9.532C40.1203 9.916 39.4723 10.108 38.6963 10.108C38.0643 10.108 37.4963 9.968 36.9923 9.688C36.4963 9.4 36.1043 9 35.8163 8.488C35.5363 7.968 35.3963 7.368 35.3963 6.688C35.3963 6.008 35.5323 5.412 35.8043 4.9C36.0843 4.38 36.4723 3.98 36.9683 3.7C37.4723 3.42 38.0483 3.28 38.6963 3.28C39.3203 3.28 39.8763 3.416 40.3643 3.688C40.8523 3.96 41.2323 4.344 41.5043 4.84C41.7763 5.328 41.9123 5.892 41.9123 6.532ZM40.4843 6.1C40.4763 5.596 40.2963 5.192 39.9443 4.888C39.5923 4.584 39.1563 4.432 38.6363 4.432C38.1643 4.432 37.7603 4.584 37.4243 4.888C37.0883 5.184 36.8883 5.588 36.8243 6.1H40.4843ZM46.9546 3.28C47.4746 3.28 47.9386 3.388 48.3466 3.604C48.7626 3.82 49.0866 4.14 49.3186 4.564C49.5506 4.988 49.6666 5.5 49.6666 6.1V10H48.3106V6.304C48.3106 5.712 48.1626 5.26 47.8666 4.948C47.5706 4.628 47.1666 4.468 46.6546 4.468C46.1426 4.468 45.7346 4.628 45.4306 4.948C45.1346 5.26 44.9866 5.712 44.9866 6.304V10H43.6186V3.388H44.9866V4.144C45.2106 3.872 45.4946 3.66 45.8386 3.508C46.1906 3.356 46.5626 3.28 46.9546 3.28ZM53.3676 4.504V8.164C53.3676 8.412 53.4236 8.592 53.5356 8.704C53.6556 8.808 53.8556 8.86 54.1356 8.86H54.9756V10H53.8956C53.2796 10 52.8076 9.856 52.4796 9.568C52.1516 9.28 51.9876 8.812 51.9876 8.164V4.504H51.2076V3.388H51.9876V1.744H53.3676V3.388H54.9756V4.504H53.3676Z" fill="#686868"/>
</svg>
