<svg width="10" height="12" viewBox="0 0 10 12" fill="none" xmlns="http://www.w3.org/2000/svg">
<path d="M8.50001 1.61332C7.57175 0.685064 6.31276 0.163574 5.00001 0.163574C3.68725 0.163574 2.42827 0.685064 1.50001 1.61332C0.571752 2.54158 0.0502625 3.80057 0.0502625 5.11332C0.0502624 6.42608 0.571752 7.68506 1.50001 8.61332L4.57418 11.6933C4.62841 11.748 4.69292 11.7914 4.76401 11.821C4.83509 11.8506 4.91134 11.8659 4.98834 11.8659C5.06535 11.8659 5.14159 11.8506 5.21268 11.821C5.28376 11.7914 5.34828 11.748 5.40251 11.6933L8.50001 8.58416C9.42439 7.65976 9.9437 6.40602 9.9437 5.09874C9.9437 3.79146 9.42439 2.53772 8.50001 1.61332ZM7.66584 7.74999L5.00001 10.4275L2.33418 7.74999C1.80751 7.22284 1.44895 6.55138 1.30383 5.82049C1.15871 5.0896 1.23354 4.33209 1.51885 3.64372C1.80417 2.95535 2.28717 2.36702 2.90679 1.9531C3.52642 1.53918 4.25485 1.31826 5.00001 1.31826C5.74517 1.31826 6.4736 1.53918 7.09323 1.9531C7.71285 2.36702 8.19585 2.95535 8.48116 3.64372C8.76648 4.33209 8.84131 5.0896 8.69619 5.82049C8.55107 6.55138 8.19251 7.22284 7.66584 7.74999ZM3.25001 3.32249C2.77909 3.79486 2.51466 4.43465 2.51466 5.10166C2.51466 5.76866 2.77909 6.40845 3.25001 6.88082C3.59987 7.23128 4.04544 7.47062 4.53081 7.56881C5.01618 7.667 5.51973 7.61966 5.9783 7.43274C6.43687 7.24583 6.83003 6.92765 7.10846 6.51813C7.38688 6.10862 7.53817 5.626 7.54334 5.13082C7.54597 4.80019 7.48228 4.47239 7.35604 4.1668C7.22979 3.86121 7.04356 3.58403 6.80834 3.35166C6.57715 3.11516 6.30147 2.92672 5.99717 2.79718C5.69287 2.66763 5.36596 2.59955 5.03524 2.59684C4.70453 2.59413 4.37654 2.65684 4.07016 2.78138C3.76378 2.90592 3.48505 3.08981 3.25001 3.32249ZM5.98584 6.05249C5.76479 6.27692 5.47263 6.4176 5.15933 6.45047C4.84604 6.48334 4.53105 6.40636 4.26822 6.2327C4.0054 6.05903 3.81106 5.79946 3.71843 5.49837C3.6258 5.19728 3.64064 4.87336 3.7604 4.582C3.88017 4.29063 4.09742 4.04991 4.37502 3.901C4.65262 3.75209 4.97332 3.70423 5.28231 3.7656C5.59129 3.82697 5.86936 3.99376 6.06897 4.23746C6.26859 4.48116 6.37736 4.78664 6.37668 5.10166C6.36819 5.46173 6.21713 5.80371 5.95668 6.05249H5.98584Z" fill="black"/>
</svg>
