<svg width="13" height="15" viewBox="0 0 13 15" fill="none" xmlns="http://www.w3.org/2000/svg">
<path fill-rule="evenodd" clip-rule="evenodd" d="M11.4633 5.12938C11.4633 6.05877 11.709 6.60657 12.2496 7.23784C12.6592 7.7029 12.7901 8.29989 12.7901 8.94755C12.7901 9.59447 12.5776 10.2086 12.1517 10.7072C11.5943 11.3049 10.8081 11.6865 10.0057 11.7529C8.84291 11.852 7.67942 11.9355 6.50048 11.9355C5.32081 11.9355 4.15805 11.8855 2.99529 11.7529C2.19217 11.6865 1.40597 11.3049 0.849226 10.7072C0.423396 10.2086 0.210114 9.59447 0.210114 8.94755C0.210114 8.29989 0.34176 7.7029 0.750675 7.23784C1.30815 6.60657 1.53761 6.05877 1.53761 5.12938V4.81412C1.53761 3.56947 1.84798 2.7556 2.48709 1.95888C3.4373 0.796953 4.96043 0.100098 6.46739 0.100098H6.53358C8.07289 0.100098 9.6453 0.830492 10.5793 2.04235C11.1853 2.82268 11.4633 3.60226 11.4633 4.81412V5.12938ZM4.33464 13.4651C4.33464 13.0925 4.67662 12.9218 4.99287 12.8488C5.3628 12.7705 7.61698 12.7705 7.98692 12.8488C8.30316 12.9218 8.64515 13.0925 8.64515 13.4651C8.62677 13.8199 8.41863 14.1344 8.13107 14.3341C7.75819 14.6248 7.32059 14.8089 6.86314 14.8752C6.61014 14.908 6.36156 14.9088 6.11738 14.8752C5.65919 14.8089 5.2216 14.6248 4.84946 14.3334C4.56116 14.1344 4.35302 13.8199 4.33464 13.4651Z" fill="#272835"/>
</svg>
