<svg width="13" height="13" viewBox="0 0 13 13" fill="none" xmlns="http://www.w3.org/2000/svg">
<path fill-rule="evenodd" clip-rule="evenodd" d="M5.99389 0.90335C3.06771 1.21698 0.611808 3.7559 0.940257 7.07891C1.22392 9.96133 3.83658 12.433 7.09121 12.1045C9.98753 11.8133 12.4658 9.22952 12.1374 5.95879C11.8463 3.0689 9.25599 0.567316 6.00136 0.910818L5.99389 0.90335ZM7.41219 6.20522C7.09121 6.10814 6.95684 6.03347 6.57614 6.01107C5.35939 5.93639 5.40418 4.75654 5.86699 4.3309C6.27755 3.95753 6.92699 4.01726 7.25543 4.3981C7.666 4.86855 7.25543 5.60036 8.15867 5.51075C8.53191 5.24192 8.43486 5.24192 8.47219 4.73414C8.40501 4.65946 8.38261 4.51758 8.34529 4.38317C8.16613 3.82311 7.61374 3.32279 7.01656 3.18091C7.0091 2.71047 7.08375 2.14294 6.53135 2.14294C5.98643 2.14294 6.04614 2.71047 6.04614 3.18091C4.97122 3.4124 4.11278 4.83121 4.86671 6.04094C5.62065 7.25812 6.56121 6.79514 7.1136 7.18345C7.30769 7.31786 7.50924 7.60909 7.50177 7.975C7.49431 8.57986 6.91952 9.11004 6.24023 8.89349C5.32953 8.60973 5.76995 7.77338 5.29221 7.53442C4.98615 7.3776 4.66517 7.57922 4.60545 7.85552C4.47855 8.41557 4.87418 9.06524 5.27728 9.43861C5.54601 9.68504 5.73263 9.67757 6.03122 9.85679C6.076 10.3123 5.95657 10.8724 6.53135 10.8724C7.08375 10.8724 7.0091 10.2899 7.01656 9.83438C8.29303 9.49835 8.86035 8.06461 8.18106 6.95196C7.85261 6.40684 7.53163 6.37697 7.40473 6.21269L7.41219 6.20522Z" fill="#FBFBFB"/>
</svg>
